<svg width="46" height="32" viewBox="0 0 46 32" fill="none" xmlns="http://www.w3.org/2000/svg">
<path d="M22.2198 16.4409L18.4688 23.1778L22.2613 29.7256L29.8315 29.7205L33.5461 23.0495L29.7933 16.4375L22.2198 16.4409Z" fill="black"/>
<path d="M12.3409 1.01119L8.58984 7.74813L12.3824 14.2959L19.9526 14.2908L23.6672 7.61978L19.9144 1.00781L12.3409 1.01119Z" fill="black"/>
<path d="M18.757 16.4384H11.2549L7.43073 9.82812L0 23.1736L3.79092 29.7248H11.3578L18.7553 16.4384H18.757Z" fill="black"/>
<path d="M23.4141 14.2864H30.9162L34.7403 20.8967L42.1711 7.55116L38.3801 1H30.8132L23.4157 14.2864H23.4141Z" fill="black"/>
<path d="M19.955 14.2941L23.4172 14.2891L22.2183 16.4424L18.7578 16.4407L19.955 14.2941Z" fill="black"/>
</svg>
